<svg width="14" height="14" viewBox="0 0 14 14" xmlns="http://www.w3.org/2000/svg">
<path fill-rule="evenodd" clip-rule="evenodd" d="M6.99925 3.12501C5.90046 3.12334 4.8255 3.44516 3.90839 4.05033C3.67791 4.20243 3.36777 4.13888 3.21568 3.90839C3.06359 3.67791 3.12714 3.36777 3.35762 3.21568C4.4386 2.50236 5.70565 2.12304 7.00077 2.12501C10.002 2.12534 12.5354 4.12091 13.3504 6.85606C13.3782 6.94935 13.3782 7.04873 13.3503 7.142C12.9037 8.6367 11.9448 9.92633 10.6421 10.7845C10.4115 10.9365 10.1014 10.8727 9.94947 10.6421C9.79755 10.4115 9.86134 10.1014 10.0919 9.94947C11.1567 9.24806 11.9509 8.20736 12.3474 6.99867C11.6108 4.7492 9.4938 3.12501 6.99925 3.12501ZM2.64489 4.41528C2.85558 4.59379 2.88167 4.90929 2.70316 5.11998C2.23434 5.67329 1.87754 6.31186 1.65201 7.00013C2.38854 9.25073 4.50538 10.875 7.00001 10.875C7.5327 10.875 8.047 10.801 8.5342 10.6634C8.79994 10.5884 9.07622 10.7429 9.15127 11.0087C9.22632 11.2744 9.07173 11.5507 8.80598 11.6258C8.23152 11.788 7.62581 11.875 7.00001 11.875C3.99844 11.875 1.46403 9.87934 0.648976 7.14273C0.621215 7.04952 0.62124 6.95023 0.64905 6.85704C0.910191 5.98189 1.34981 5.17033 1.94019 4.47354C2.1187 4.26285 2.43421 4.23677 2.64489 4.41528ZM6.1392 4.92143C6.41221 4.80835 6.70481 4.75015 7.0003 4.75015C7.29579 4.75015 7.58839 4.80835 7.86139 4.92143C8.13439 5.03451 8.38245 5.20026 8.59139 5.4092C8.80034 5.61815 8.96608 5.8662 9.07916 6.1392C9.19224 6.4122 9.25045 6.7048 9.25045 7.0003C9.25045 7.29579 9.19224 7.58839 9.07916 7.86139C8.96608 8.13439 8.80034 8.38245 8.59139 8.59139C8.39613 8.78666 8.07955 8.78666 7.88429 8.59139C7.68902 8.39613 7.68902 8.07955 7.88429 7.88429C8.00037 7.7682 8.09246 7.63038 8.15528 7.47871C8.21811 7.32703 8.25045 7.16447 8.25045 7.0003C8.25045 6.83613 8.21811 6.67356 8.15528 6.52189C8.09246 6.37021 8.00037 6.2324 7.88429 6.11631C7.7682 6.00022 7.63038 5.90814 7.47871 5.84531C7.32703 5.78249 7.16447 5.75015 7.0003 5.75015C6.83613 5.75015 6.67356 5.78249 6.52189 5.84531C6.3691 5.9086 6.23097 6.00049 6.11573 6.11573C5.92046 6.31099 5.60388 6.31099 5.40862 6.11573C5.21336 5.92046 5.21336 5.60388 5.40862 5.40862C5.61841 5.19883 5.86732 5.03405 6.1392 4.92143Z"/>
<path fill-rule="evenodd" clip-rule="evenodd" d="M1.38265 1.38285C1.57791 1.18759 1.8945 1.18759 2.08976 1.38285L12.6167 11.9098C12.812 12.1051 12.812 12.4217 12.6167 12.6169C12.4215 12.8122 12.1049 12.8122 11.9096 12.6169L1.38265 2.08996C1.18739 1.89469 1.18739 1.57811 1.38265 1.38285Z"/>
</svg>
