<svg width="14" height="14" viewBox="0 0 14 14" xmlns="http://www.w3.org/2000/svg">
<path fill-rule="evenodd" clip-rule="evenodd" d="M7.00002 3.125C4.51506 3.125 2.40534 4.73684 1.66216 6.97279C1.656 6.9913 1.65595 7.01146 1.66211 7.02998C2.40701 9.26487 4.51621 10.875 7.00002 10.875C9.485 10.875 11.5947 9.26315 12.3373 7.02731L12.3379 7.02544C12.344 7.00732 12.3437 6.98895 12.3381 6.97234L12.3374 6.97025C11.5926 4.73518 9.48386 3.125 7.00002 3.125ZM0.713259 6.65723C1.5883 4.02475 4.0717 2.125 7.00002 2.125C9.92718 2.125 12.4093 4.02298 13.2861 6.65409C13.3614 6.87808 13.361 7.11986 13.286 7.34346C12.4113 9.97564 9.92803 11.875 7.00002 11.875C4.07292 11.875 1.59018 9.97707 0.713334 7.34591C0.638981 7.12245 0.638906 6.88069 0.713259 6.65723ZM0.713259 6.65723C0.713242 6.65728 0.713276 6.65718 0.713259 6.65723V6.65723Z"/>
<path fill-rule="evenodd" clip-rule="evenodd" d="M7.00002 5.75C6.6685 5.75 6.35056 5.8817 6.11614 6.11612C5.88172 6.35054 5.75002 6.66848 5.75002 7C5.75002 7.33152 5.88172 7.64946 6.11614 7.88388C6.35056 8.1183 6.6685 8.25 7.00002 8.25C7.33154 8.25 7.64948 8.1183 7.8839 7.88388C8.11832 7.64946 8.25002 7.33152 8.25002 7C8.25002 6.66848 8.11832 6.35054 7.8839 6.11612C7.64948 5.8817 7.33154 5.75 7.00002 5.75ZM5.40903 5.40901C5.83099 4.98705 6.40328 4.75 7.00002 4.75C7.59676 4.75 8.16905 4.98705 8.59101 5.40901C9.01297 5.83097 9.25002 6.40326 9.25002 7C9.25002 7.59674 9.01297 8.16903 8.59101 8.59099C8.16905 9.01295 7.59676 9.25 7.00002 9.25C6.40328 9.25 5.83099 9.01295 5.40903 8.59099C4.98707 8.16903 4.75002 7.59674 4.75002 7C4.75002 6.40326 4.98707 5.83097 5.40903 5.40901Z"/>
</svg>
