<svg xmlns="http://www.w3.org/2000/svg" id="Layer_1" width="40px" height="40px" viewBox="0 0 300 220"><defs><style>.cls-1{fill:#fff}.cls-2{fill:#e2cbb5}.cls-3{fill:#9fa628}.cls-4{fill:#bf6c35}</style></defs><g id="Logo_Layered_for-Black-BG"><g id="Human"><g id="Teeth"><path class="cls-1" d="M250 75v3a3 3 0 006 0v-3zM238 75v3a3 3 0 006 0v-3zM226 75v3a3 3 0 006 0v-3zM214 75v3a3 3 0 006 0v-3zM244 95v-3a3 3 0 016 0v3zM232 95v-3a3 3 0 016 0v3zM220 95v-3a3 3 0 016 0v3zM208 95v-3a3 3 0 016 0v3z"/></g><path id="Body" class="cls-2" d="M298.83 201L284 186.17V181a28.13 28.13 0 00-24-27.71V149h4a28 28 0 0028-28V93a4 4 0 00-8 0v1a1 1 0 01-2 0v-1a4 4 0 00-8 0v1a1 1 0 01-2 0v-1a4 4 0 00-8 0v24a4 4 0 01-4 4V93h-52a8 8 0 010-16h52v-6.26a8 8 0 000-15.48V45l-5-5h-62l-5 5v10.26a8 8 0 000 15.48V121a4 4 0 01-4-4V93a4 4 0 00-8 0v1a1 1 0 01-2 0v-1a4 4 0 00-8 0v1a1 1 0 01-2 0v-1a4 4 0 00-8 0v28a28 28 0 0028 28h4v16a4 4 0 01-4 4h-16v42.83L182.83 197H188a27.92 27.92 0 0025.3-16H252a4 4 0 014 4v16z"/><g id="Eye_Left"><circle class="cls-1" cx="212" cy="59" r="9"/><circle class="cls-3" cx="212" cy="59" r="5"/></g><g id="Eye_Right"><circle class="cls-1" cx="236" cy="59" r="9"/><circle class="cls-3" cx="236" cy="59" r="5"/></g><path class="cls-4" d="M188 41c0-15.25 8.75-24 24-24h24c15.25 0 24 8.75 24 24v4c-1.75 0-2.38-1-3-2s-1.25-2-3-2-2.38 1-3 2-1.25 2-3 2-2.38-1-3-2-1.25-2-3-2-2.38 1-3 2-1.25 2-3 2-2.38-1-3-2-1.25-2-3-2-2.38 1-3 2-1.25 2-3 2-2.38-1-3-2-1.25-2-3-2-2.38 1-3 2-1.25 2-3 2-2.38-1-3-2-1.25-2-3-2-2.38 1-3 2-1.25 2-3 2-2.38-1-3-2-1.25-2-3-2-2.38 1-3 2-1.25 2-3 2z"/></g><g id="Martian"><g id="Teeth-2"><path class="cls-1" d="M96 93l-4-8-4 8 4 2 4-2zM84 93l-4-8-4 8 4 2 4-2zM72 93l-4-8-4 8 4 2 4-2zM60 93l-4-8-4 8 4 2 4-2zM48 93l-4-8-4 8 4 2 4-2zM90 77l-4 8-4-8 4-2 4 2zM78 77l-4 8-4-8 4-2 4 2zM66 77l-4 8-4-8 4-2 4 2zM54 77l-4 8-4-8 4-2 4 2z"/></g><g id="Thorns"><path class="cls-2" d="M28 160.4L3.88 147 28 133.6v26.8z"/><path class="cls-2" d="M28 140.4L3.88 127 28 113.6v26.8z"/><path class="cls-2" d="M28 120.4L3.88 107 28 93.6v26.8z"/><path class="cls-2" d="M28 100.4L3.88 87 28 73.6v26.8z"/></g><path id="Body-2" class="cls-3" d="M44 93a8 8 0 010-16h52V41c0-6.75-1.72-12.22-5-16.22l5.29-5.29A10.61 10.61 0 00102 21a2 2 0 000-4c-3.81 0-6-2.19-6-6a2 2 0 00-4 0 10.61 10.61 0 001.51 5.66L88.22 22c-4-3.28-9.47-5-16.22-5H48c-6.75 0-12.22 1.72-16.22 5l-5.29-5.29A10.61 10.61 0 0028 11a2 2 0 00-4 0c0 3.81-2.19 6-6 6a2 2 0 000 4 10.61 10.61 0 005.66-1.51L29 24.78c-3.28 4-5 9.47-5 16.22v124a4 4 0 01-4 4H4v42.83L18.83 197H24a27.92 27.92 0 0025.3-16H88a4 4 0 014 4v16h42.83L120 186.17V181a28.13 28.13 0 00-24-27.71V153h51.7l-11.58-9.27 14.2-4.73-14.2-4.73L147.7 125H96v-4h51.7l-11.58-9.27 14.2-4.73-14.2-4.73L147.7 93z"/><g id="Eye_Left-2"><circle class="cls-1" cx="48" cy="59" r="9"/><circle class="cls-4" cx="48" cy="59" r="5"/></g><g id="Eye_Right-2"><circle class="cls-1" cx="72" cy="59" r="9"/><circle class="cls-4" cx="72" cy="59" r="5"/></g></g></g><script xmlns=""/></svg>